<?xml version="1.0" encoding="utf-8"?>
<!-- Generator: Adobe Illustrator 27.6.1, SVG Export Plug-In . SVG Version: 6.00 Build 0)  -->
<svg version="1.1" id="Layer_1" xmlns="http://www.w3.org/2000/svg" xmlns:xlink="http://www.w3.org/1999/xlink" x="0px" y="0px"
	 viewBox="0 0 24 24" style="enable-background:new 0 0 24 24;" xml:space="preserve">
<style type="text/css">
	.st0{fill:#637381;}
</style>
<path class="st0" d="M13,13v11h6c2.8,0,5-2.2,5-5v-6H13z M21,20h-5v-1h5V20z M21,18h-5v-1h5V18z"/>
<path class="st0" d="M0,13v6c0,2.8,2.2,5,5,5h6V13H0z M8,19H6v2H5v-2H3v-1h2v-2h1v2h2V19z"/>
<path class="st0" d="M19,0h-6v11h11V5C24,2.2,21.8,0,19,0z M18.5,3C18.8,3,19,3.2,19,3.5S18.8,4,18.5,4S18,3.8,18,3.5S18.2,3,18.5,3
	z M18.5,8C18.2,8,18,7.8,18,7.5S18.2,7,18.5,7S19,7.2,19,7.5S18.8,8,18.5,8z M21,6h-5V5h5V6z"/>
<path class="st0" d="M5,0C2.2,0,0,2.2,0,5v6h11V0H5z M7.6,6.9L6.9,7.6L5.5,6.2L4.1,7.6L3.4,6.9l1.4-1.4L3.4,4.1l0.7-0.7l1.4,1.4
	l1.4-1.4l0.7,0.7L6.2,5.5L7.6,6.9z"/>
</svg>
